<?xml version="1.0" encoding="UTF-8" standalone="no"?>
<!-- Created with Inkscape (http://www.inkscape.org/) -->

<svg
        xmlns:dc="http://purl.org/dc/elements/1.1/"
        xmlns:cc="http://creativecommons.org/ns#"
        xmlns:rdf="http://www.w3.org/1999/02/22-rdf-syntax-ns#"
        xmlns="http://www.w3.org/2000/svg"
        xmlns:sodipodi="http://sodipodi.sourceforge.net/DTD/sodipodi-0.dtd"
        xmlns:inkscape="http://www.inkscape.org/namespaces/inkscape"
        version="1.1"
        id="svg110913"
        xml:space="preserve"
        width="800"
        height="800"
        viewBox="0 0 800 800"
        sodipodi:docname="soccer-player-color-publicdomainvectors.org (2).svg"
        inkscape:version="0.92.4 (5da689c313, 2019-01-14)"><metadata
     id="metadata110919"><rdf:RDF><cc:Work
         rdf:about=""><dc:format>image/svg+xml</dc:format><dc:type
        rdf:resource="http://purl.org/dc/dcmitype/StillImage"/><dc:title></dc:title></cc:Work></rdf:RDF></metadata>
    <defs
            id="defs110917"><clipPath
       clipPathUnits="userSpaceOnUse"
       id="clipPath110929"><path
         d="M 0,600 H 600 V 0 H 0 Z"
         id="path110927"
         inkscape:connector-curvature="0" /></clipPath></defs>
    <sodipodi:namedview
            pagecolor="#ffffff"
            bordercolor="#666666"
            borderopacity="1"
            objecttolerance="10"
            gridtolerance="10"
            guidetolerance="10"
            inkscape:pageopacity="0"
            inkscape:pageshadow="2"
            inkscape:window-width="640"
            inkscape:window-height="480"
            id="namedview110915"
            showgrid="false"
            inkscape:zoom="0.38142578"
            inkscape:cx="400"
            inkscape:cy="400"
            inkscape:window-x="0"
            inkscape:window-y="0"
            inkscape:window-maximized="0"
            inkscape:current-layer="g110921"/>
    <g
            id="g110921"
            inkscape:groupmode="layer"
            inkscape:label="soccer-player-color-publicdomainvectors.org (2)"
            transform="matrix(1.3333333,0,0,-1.3333333,0,800)"><g
       id="g110923"><g
         id="g110925"
         clip-path="url(#clipPath110929)"><path
           d="m 477.283,573.681 2.901,-5.535 c 0.099,1.919 -0.493,4.043 -2.901,5.535"
           style="fill:#2a3d9b;fill-opacity:1;fill-rule:nonzero;stroke:none"
           id="path110931"
           inkscape:connector-curvature="0" /><path
            d="m 421.74,533.861 c 0.268,0.116 0.541,0.225 0.83,0.324 7.808,2.736 15.537,6.058 22.914,12.036 20.189,12.896 24.831,8.722 33.562,17.822 0.376,0.753 1.046,2.341 1.138,4.103 l -2.901,5.535 c -1.002,0.62 -2.311,1.132 -4.023,1.472 l -1.39,2.546 -2.083,0.463 -0.926,-2.546 -4.481,0.097 -0.639,2.546 h -2.435 l -0.899,-2.479 c -5.854,0.375 -6.71,0.88 -8.674,0.762 l -0.555,2.614 c -1.591,0.07 -2.258,-0.077 -3.23,0.135 l -0.626,-3.104 -2.355,-0.108 -0.408,2.546 -3.213,0.016 c -0.584,-1.614 -1.356,-3.276 -2.805,-5.106 -6.675,-2.978 -14.045,-3.638 -21.934,-2.568 l -7.447,-34.346 z"
            style="fill:#244ca6;fill-opacity:1;fill-rule:nonzero;stroke:none"
            id="path110933"
            inkscape:connector-curvature="0"/><path
            d="m 416.607,570.967 c -2.365,0.32 -4.777,0.795 -7.231,1.411 l -0.872,3.785 -3.824,-0.082 -0.574,-2.165 -5.608,-0.149 -0.49,2.232 -3.541,0.061 14.693,-39.439 z"
            style="fill:#2645a1;fill-opacity:1;fill-rule:nonzero;stroke:none"
            id="path110935"
            inkscape:connector-curvature="0"/><path
            d="m 394.467,576.06 -1.293,0.021 -0.531,-2.261 c -11.834,-7.005 -11.592,-15.87 -8.944,-24.155 l 25.461,-13.044 z"
            style="fill:#244da7;fill-opacity:1;fill-rule:nonzero;stroke:none"
            id="path110937"
            inkscape:connector-curvature="0"/><path
            d="m 2.886,247.382 2.406,9.481 c -1.828,-2.544 -2.717,-6.031 -2.406,-9.481"
            style="fill:#b22026;fill-opacity:1;fill-rule:nonzero;stroke:none"
            id="path110939"
            inkscape:connector-curvature="0"/><path
            d="m 415.811,527.913 c 1.136,2.176 2.81,4.596 5.929,5.948 l -12.58,2.76 z"
            style="fill:#2155ad;fill-opacity:1;fill-rule:nonzero;stroke:none"
            id="path110941"
            inkscape:connector-curvature="0"/><path
            d="m 383.699,549.665 c 0.071,-0.222 0.143,-0.443 0.217,-0.665 l 1.389,-8.795 c -0.678,-8.081 -3.227,-15.538 -6.401,-22.786 l 30.256,19.202 z"
            style="fill:#127cca;fill-opacity:1;fill-rule:nonzero;stroke:none"
            id="path110943"
            inkscape:connector-curvature="0"/><path
            d="m 414.7,525.621 c 0.326,0.681 0.681,1.469 1.111,2.292 l -6.651,8.708 -30.256,-19.202 c -3.642,-8.319 -8.111,-16.363 -11.525,-24.758 -1.856,-3.927 -3.945,-7.735 -6.427,-11.348 l 43.187,5.28 c 2.256,13.01 5.193,26.018 10.561,39.028"
            style="fill:#1575c5;fill-opacity:1;fill-rule:nonzero;stroke:none"
            id="path110945"
            inkscape:connector-curvature="0"/><path
            d="m 392.664,441.156 c 1.225,4.057 2.407,8.198 3.52,12.481 2.709,0.697 3.921,4.013 4.166,9.026 1.275,7.977 2.404,15.954 3.789,23.93 l -43.187,-5.28 c -1.995,-2.906 -4.243,-5.684 -6.831,-8.292 -6.726,-8.353 -11.985,-29.461 -11.619,-44.681 l -1.965,-1.31 -0.49,-8.838 0.981,0.328 0.818,-5.074 c -7.767,-8.375 -11.447,-17.569 -16.366,-26.513 -1.732,-1.62 -3.441,-3.263 -5.131,-4.924 l 0.915,-11.215 z"
            style="fill:#109fe3;fill-opacity:1;fill-rule:nonzero;stroke:none"
            id="path110947"
            inkscape:connector-curvature="0"/><path
            d="m 364.645,362.035 c 0.342,2.417 0.53,4.864 0.523,7.35 6.095,6.374 12.189,16.15 18.285,43.283 3.075,9.485 6.268,18.738 9.211,28.488 l -71.4,-70.362 z"
            style="fill:#0995dd;fill-opacity:1;fill-rule:nonzero;stroke:none"
            id="path110949"
            inkscape:connector-curvature="0"/><path
            d="m 320.349,382.009 c -1.308,-1.283 -2.604,-2.576 -3.889,-3.881 l 4.804,-7.334 z"
            style="fill:#7cc8ee;fill-opacity:1;fill-rule:nonzero;stroke:none"
            id="path110951"
            inkscape:connector-curvature="0"/><path
            d="m 316.46,378.128 c -2.335,-2.37 -4.639,-4.772 -6.916,-7.199 l 11.72,-0.135 z"
            style="fill:#ded6cc;fill-opacity:1;fill-rule:nonzero;stroke:none"
            id="path110953"
            inkscape:connector-curvature="0"/><path
            d="m 321.264,370.794 -11.72,0.135 c -6.731,-7.174 -13.243,-14.565 -19.743,-21.967 -7.413,-0.097 -14.271,0.919 -21.277,1.637 -6.547,-7.135 -3.71,-18.441 -5.566,-27.661 -1.118,-3.624 -5.229,-6.392 -9.328,-9.166 -0.091,0.009 -0.18,0.018 -0.271,0.026 l 3.495,-8.125 z"
            style="fill:#efb798;fill-opacity:1;fill-rule:nonzero;stroke:none"
            id="path110955"
            inkscape:connector-curvature="0"/><path
            d="m 121.551,366.799 c -3.458,1.605 -7.289,1.722 -11.62,-0.163 -3.74,-0.762 -6.218,-1.404 -7.969,-1.976 l 15.042,-72.154 3.912,4.826 c 0.94,4.02 1.532,8.704 1.617,14.312 1.786,1.316 3.879,-1.048 6.088,-4.809 l 30.928,38.15 c -10.997,7.033 -23.731,14.314 -37.998,21.814"
            style="fill:#ed1c24;fill-opacity:1;fill-rule:nonzero;stroke:none"
            id="path110957"
            inkscape:connector-curvature="0"/><path
            d="m 101.962,364.66 c -3.62,-1.183 -4.114,-2.069 -6.107,-3.098 -7.714,-8.166 -9.963,-18.318 -13.093,-28.151 l -1.309,-0.654 -3.929,-10.803 0.655,-0.654 c -2.224,-5.345 -3.807,-11.038 -5.004,-16.944 l 43.829,-11.85 z"
            style="fill:#e41d25;fill-opacity:1;fill-rule:nonzero;stroke:none"
            id="path110959"
            inkscape:connector-curvature="0"/><path
            d="m 336.561,295.021 c 3.892,5.664 7.929,10.551 11.248,19.277 2.031,-0.053 3.972,-0.735 5.785,-2.315 1.631,-0.639 2.117,9.557 0.707,10.633 l -2.79,1.403 c 4.788,12.59 11.268,24.841 13.134,38.016 l -43.381,8.759 z"
            style="fill:#7dc3ed;fill-opacity:1;fill-rule:nonzero;stroke:none"
            id="path110961"
            inkscape:connector-curvature="0"/><path
            d="m 119.491,292.404 c 0.534,1.528 1.012,3.164 1.425,4.928 l -3.912,-4.826 z"
            style="fill:#ed1c24;fill-opacity:1;fill-rule:nonzero;stroke:none"
            id="path110963"
            inkscape:connector-curvature="0"/><path
            d="m 183.196,341.377 c -0.472,0.4 -0.944,0.801 -1.415,1.201 -3.267,-0.307 -6.733,-1.149 -11.293,-4.91 v -0.002 c -3.424,2.408 -7.077,4.849 -10.939,7.319 l -30.928,-38.15 c 0.635,-1.082 1.281,-2.279 1.932,-3.538 l 0.163,-5.074 c 3.397,-2.003 6.754,-4.254 10.078,-6.691 l 37.061,-1.516 z"
            style="fill:#ed1c24;fill-opacity:1;fill-rule:nonzero;stroke:none"
            id="path110965"
            inkscape:connector-curvature="0"/><path
            d="m 201.369,328.101 c -7.077,4.086 -12.708,8.653 -18.173,13.276 l -5.341,-51.361 z"
            style="fill:#ed1c24;fill-opacity:1;fill-rule:nonzero;stroke:none"
            id="path110967"
            inkscape:connector-curvature="0"/><path
            d="M 256.854,305.673 336.547,295 c 0.004,0.007 0.01,0.014 0.014,0.021 l -15.297,75.773 z"
            style="fill:#f2ebe2;fill-opacity:1;fill-rule:nonzero;stroke:none"
            id="path110969"
            inkscape:connector-curvature="0"/><path
            d="m 256.854,305.673 -3.495,8.125 c -24.955,2.225 -40.411,7.618 -51.99,14.303 l -23.514,-38.085 z"
            style="fill:#ef3220;fill-opacity:1;fill-rule:nonzero;stroke:none"
            id="path110971"
            inkscape:connector-curvature="0"/><path
            d="m 439.234,299.021 c -3.621,7.54 -19.199,25.631 -32.519,20.6 -8.867,-4.621 -12.658,-9.211 -14.697,-11.457 -4.69,-6.949 -8.663,-9.672 -14.583,-13.54 -1.404,-1.035 -4.468,-4.426 -7.392,-8.927 l 71.147,-19.762 c 3.421,8.526 3.931,19.484 -1.956,33.086"
            style="fill:#4cabd8;fill-opacity:1;fill-rule:nonzero;stroke:none"
            id="path110973"
            inkscape:connector-curvature="0"/><path
            d="m 403.466,215.286 22.177,21.85 c -3.364,2.463 -7.162,4.125 -11.289,5.177 3.341,0.388 13.279,4.696 20.676,13.463 l -68.928,-29.459 z"
            style="fill:#b5adad;fill-opacity:1;fill-rule:nonzero;stroke:none"
            id="path110975"
            inkscape:connector-curvature="0"/><path
            d="m 435.03,255.776 c 2.441,2.894 4.602,6.275 6.16,10.159 l -71.147,19.762 c -3.214,-4.948 -6.256,-11.238 -6.727,-17.228 -5.255,0.443 -10.41,0.545 -15.427,0.2 l 18.213,-42.352 z"
            style="fill:#c8bdc7;fill-opacity:1;fill-rule:nonzero;stroke:none"
            id="path110977"
            inkscape:connector-curvature="0"/><path
            d="m 261.125,228.097 75.388,66.853 c 0.01,0.017 0.022,0.033 0.034,0.05 l -79.693,10.673 z"
            style="fill:#f47f52;fill-opacity:1;fill-rule:nonzero;stroke:none"
            id="path110979"
            inkscape:connector-curvature="0"/><path
            d="M 73.175,304.356 C 70.916,293.21 70.039,281.312 68.85,269.581 67.967,265.246 66.882,261.088 64.867,257.75 l 29.371,-40.593 c 1.153,4.983 -0.913,10.855 -0.674,16.09 h -0.982 c -0.045,17.683 7.504,25.99 12.71,36.382 2.708,4.222 5.97,7.858 8.925,12.307 l 2.787,10.57 z"
            style="fill:#e31d25;fill-opacity:1;fill-rule:nonzero;stroke:none"
            id="path110981"
            inkscape:connector-curvature="0"/><path
            d="m 64.268,256.814 c -2.172,-0.113 -3.963,1.232 -7.366,-3.599 -13.11,-0.067 -22.722,2.034 -32.405,4.091 -2.952,1.253 -6.068,2.451 -10.311,3.273 -3.844,0.688 -6.918,-0.963 -8.894,-3.716 l -2.406,-9.481 c 0.18,-2.006 0.765,-3.999 1.807,-5.788 2.256,-3.6 4.899,-7.034 8.674,-9.984 l 3.928,0.164 c 2.291,-3.166 4.583,-4.113 6.874,-5.401 l -0.245,-3.027 2.373,-0.738 1.964,2.62 5.237,-2.128 v -2.783 l 2.537,-0.573 1.309,2.292 c 10.99,-2.202 20.821,-4.823 27.251,-10.065 l -0.257,-2.697 3.954,0.612 0.067,0.12 0.245,-0.072 24.11,3.721 c 0.759,1.098 1.24,2.273 1.524,3.502 L 64.867,257.75 c -0.192,-0.318 -0.389,-0.632 -0.599,-0.936"
            style="fill:#d51f26;fill-opacity:1;fill-rule:nonzero;stroke:none"
            id="path110983"
            inkscape:connector-curvature="0"/><path
            d="m 177.855,290.016 83.27,-61.919 -4.271,77.576 z"
            style="fill:#ed1c24;fill-opacity:1;fill-rule:nonzero;stroke:none"
            id="path110985"
            inkscape:connector-curvature="0"/><path
            d="m 177.855,290.016 -8.707,-22.975 c 3.81,-2.891 7.534,-5.235 11.159,-6.952 l 1.146,-3.765 2.455,-0.164 c 5.65,-2.562 8.259,-9.904 11.948,-15.548 -0.375,-5.334 2.568,-8.298 8.674,-9.002 0.98,-4.161 2.512,-7.783 4.563,-10.899 l 52.032,7.386 z"
            style="fill:#ed1c24;fill-opacity:1;fill-rule:nonzero;stroke:none"
            id="path110987"
            inkscape:connector-curvature="0"/><path
            d="m 118.262,289.276 c 0.434,0.994 0.845,2.033 1.229,3.128 l -2.487,0.102 z"
            style="fill:#ed1c24;fill-opacity:1;fill-rule:nonzero;stroke:none"
            id="path110989"
            inkscape:connector-curvature="0"/><path
            d="m 140.794,291.532 c 4.268,-3.127 8.485,-6.558 12.672,-10.167 5.364,-5.639 10.6,-10.469 15.682,-14.324 l 8.707,22.975 z"
            style="fill:#ed1c24;fill-opacity:1;fill-rule:nonzero;stroke:none"
            id="path110991"
            inkscape:connector-curvature="0"/><path
            d="m 366.102,226.317 -18.213,42.352 c -3.01,-0.207 -5.971,-0.575 -8.877,-1.126 l -15.508,3.24 c 3.035,3.042 5.913,6.812 7.87,14.814 1.528,1.534 3.755,2.089 3.241,6.481 0.625,0.992 1.26,1.943 1.898,2.872 l -75.388,-66.853 z"
            style="fill:#ec875d;fill-opacity:1;fill-rule:nonzero;stroke:none"
            id="path110993"
            inkscape:connector-curvature="0"/><path
            d="m 114.217,281.936 c 1.457,2.193 2.84,4.585 4.045,7.34 l -1.258,3.23 z"
            style="fill:#ed1c24;fill-opacity:1;fill-rule:nonzero;stroke:none"
            id="path110995"
            inkscape:connector-curvature="0"/><path
            d="m 436.994,221.351 c -2.719,7.223 -6.601,12.305 -11.351,15.785 l -22.177,-21.85 z"
            style="fill:#4b80b1;fill-opacity:1;fill-rule:nonzero;stroke:none"
            id="path110997"
            inkscape:connector-curvature="0"/><path
            d="m 64.268,208.533 2.782,-0.899 1.242,2.252 -3.954,-0.612 z"
            style="fill:#d51f26;fill-opacity:1;fill-rule:nonzero;stroke:none"
            id="path110999"
            inkscape:connector-curvature="0"/><path
            d="m 74.415,208.206 0.245,-3.028 2.946,-0.573 1.228,2.291 c 7.749,1.39 11.831,3.794 13.88,6.759 l -24.11,-3.721 z"
            style="fill:#d51f26;fill-opacity:1;fill-rule:nonzero;stroke:none"
            id="path111001"
            inkscape:connector-curvature="0"/><path
            d="m 209.093,220.711 c 5.157,-7.833 13.605,-12.456 24.897,-14.306 3.636,0.274 6.968,-0.429 9.799,-2.731 l 17.336,24.423 z"
            style="fill:#ed1c24;fill-opacity:1;fill-rule:nonzero;stroke:none"
            id="path111003"
            inkscape:connector-curvature="0"/><path
            d="m 225.971,186.929 -38.462,-20.294 c -2.147,0.533 -4.126,-0.273 -6.056,-1.473 -1.267,0.205 -2.138,0.213 -2.832,0.132 l 8.868,-13.693 c 1.511,0.039 3.073,0.226 4.766,0.467 3.198,0.758 9.025,1.313 12.439,0.819 1.169,-0.157 2.193,-0.122 3.095,0.068 l 29.65,41.773 z"
            style="fill:#ed1c24;fill-opacity:1;fill-rule:nonzero;stroke:none"
            id="path111005"
            inkscape:connector-curvature="0"/><path
            d="m 243.789,203.674 c 0.937,-0.762 1.819,-1.698 2.64,-2.833 l -8.99,-6.113 -29.65,-41.773 c 3.181,0.672 4.835,3.297 5.907,6.478 14.075,0.647 28.306,3.784 42.707,9.649 l 4.722,59.015 z"
            style="fill:#ed1c24;fill-opacity:1;fill-rule:nonzero;stroke:none"
            id="path111007"
            inkscape:connector-curvature="0"/><path
            d="m 261.125,228.097 25.7,-43.609 c 8.49,2.329 16.999,-1.991 21.47,-3.778 13.463,-4.24 27.394,-1.472 41.133,-1.585 0.19,-0.027 0.377,-0.055 0.564,-0.082 l 16.11,47.274 z"
            style="fill:#ed1c24;fill-opacity:1;fill-rule:nonzero;stroke:none"
            id="path111009"
            inkscape:connector-curvature="0"/><path
            d="m 256.403,169.082 c 8.83,3.596 17.725,8.215 26.687,13.919 1.236,0.661 2.485,1.145 3.735,1.487 l -25.7,43.609 z"
            style="fill:#ed1c24;fill-opacity:1;fill-rule:nonzero;stroke:none"
            id="path111011"
            inkscape:connector-curvature="0"/><path
            d="m 441.318,187.458 c 0.366,14.626 -1.222,25.653 -4.324,33.893 l -33.528,-6.065 -1.271,-43.947 c 1.548,-4.377 4.57,-8.091 6.514,-12.289 l 34.224,25.954 c -0.513,0.82 -1.049,1.638 -1.615,2.454"
            style="fill:#9c7485;fill-opacity:1;fill-rule:nonzero;stroke:none"
            id="path111013"
            inkscape:connector-curvature="0"/><path
            d="m 457.752,140.009 c -1.902,3.704 -2.535,10.265 -3.24,16.665 -3.15,9.502 -5.769,19.049 -11.579,28.33 L 408.709,159.05 c 0.152,-0.326 0.299,-0.654 0.436,-0.987 0.287,-2.459 0.724,-4.919 1.476,-7.379 l 48.766,-16.589 c -0.256,1.778 -0.618,3.628 -1.635,5.914"
            style="fill:#832566;fill-opacity:1;fill-rule:nonzero;stroke:none"
            id="path111015"
            inkscape:connector-curvature="0"/><path
            d="m 349.992,179.043 c 24.104,-3.521 33.58,-2.99 40.086,-1.637 l -23.976,48.911 z"
            style="fill:#da1f26;fill-opacity:1;fill-rule:nonzero;stroke:none"
            id="path111017"
            inkscape:connector-curvature="0"/><path
            d="m 366.102,226.317 23.976,-48.911 c 0.508,0.106 0.998,0.216 1.477,0.33 3.568,2.475 6.922,3.225 10.183,3.241 -0.925,-3.699 -0.543,-6.807 0.457,-9.638 l 1.271,43.947 z"
            style="fill:#c25b44;fill-opacity:1;fill-rule:nonzero;stroke:none"
            id="path111019"
            inkscape:connector-curvature="0"/><path
            d="m 175.889,164.671 c -2.456,-0.807 -5.238,0.643 -7.693,2.127 -1.726,1.253 -5.038,3.142 -5.728,-1.391 -0.176,-1.708 1.785,-7.184 12.602,-9.247 4.787,-3.734 8.427,-4.664 12.419,-4.559 l -8.868,13.693 c -1.076,-0.126 -1.723,-0.465 -2.732,-0.623"
            style="fill:#ed1c24;fill-opacity:1;fill-rule:nonzero;stroke:none"
            id="path111021"
            inkscape:connector-curvature="0"/><path
            d="m 479.344,39.516 c -6.451,10.561 -10.642,23.036 -13.26,36.84 -3.504,17.322 -3.488,34.642 -14.351,51.963 2.472,1.114 5.244,1.625 8.333,1.505 -0.341,1.5 -0.476,2.864 -0.679,4.271 l -48.766,16.589 c 0.993,-3.249 2.533,-6.499 5.004,-9.749 -0.621,-3.033 -0.592,-5.762 -0.162,-8.326 L 477.84,37.004 Z"
            style="fill:#8e2227;fill-opacity:1;fill-rule:nonzero;stroke:none"
            id="path111023"
            inkscape:connector-curvature="0"/><path
            d="m 415.463,132.609 c 0.742,-4.433 2.687,-8.369 4.56,-12.506 0.368,-14.334 9.838,-23.661 15.74,-34.951 L 459.371,43.49 c 1.363,-3.155 2.902,-6.184 3.064,-10.196 l 15.405,3.71 z"
            style="fill:#a82026;fill-opacity:1;fill-rule:nonzero;stroke:none"
            id="path111025"
            inkscape:connector-curvature="0"/><path
            d="m 479.344,39.516 -1.504,-2.512 3.402,0.769 c -0.494,0.349 -0.992,0.707 -1.502,1.087 -0.135,0.216 -0.263,0.438 -0.396,0.656"
            style="fill:#651e21;fill-opacity:1;fill-rule:nonzero;stroke:none"
            id="path111027"
            inkscape:connector-curvature="0"/><path
            d="m 481.502,19.859 c 9.549,-3.513 15.982,-10.141 24.625,-14.56 3.416,-1.066 7.002,-3.06 9.837,-0.926 5.848,-1.198 8.313,-1.205 9.952,1.505 0.119,1.289 2.63,3.715 -4.976,5.207 -9.481,1.66 -19.296,8.294 -29.395,18.285 -4.217,4.365 -7.159,6.184 -10.303,8.403 l -3.402,-0.769 z"
            style="fill:#5d1a1d;fill-opacity:1;fill-rule:nonzero;stroke:none"
            id="path111029"
            inkscape:connector-curvature="0"/><path
            d="m 462.435,33.294 c 0.03,-0.734 0.018,-1.497 -0.054,-2.304 -0.834,-5.296 4.682,-8.564 7.406,-8.795 0.883,-0.042 1.734,-0.114 2.568,-0.205 l 5.485,15.014 z"
            style="fill:#8c1d22;fill-opacity:1;fill-rule:nonzero;stroke:none"
            id="path111031"
            inkscape:connector-curvature="0"/><path
            d="m 472.355,21.99 c 3.391,-0.368 6.399,-1.119 9.147,-2.131 l -3.662,17.145 z"
            style="fill:#711b1f;fill-opacity:1;fill-rule:nonzero;stroke:none"
            id="path111033"
            inkscape:connector-curvature="0"/></g></g></g></svg>